<?xml version="1.0" encoding="UTF-8"?> <svg xmlns="http://www.w3.org/2000/svg" height="512" viewBox="0 0 512 512" width="512"> <g fill="#fabe19"> <path d="m440 72a8 8 0 0 1 8 8v16a0 0 0 0 1 0 0h-16a0 0 0 0 1 0 0v-16a8 8 0 0 1 8-8z"></path> <path d="m452 92h16a0 0 0 0 1 0 0v16a8 8 0 0 1 -8 8 8 8 0 0 1 -8-8v-16a0 0 0 0 1 0 0z" transform="matrix(0 -1 1 0 356 564)"></path> <path d="m440 112a8 8 0 0 1 8 8v16a0 0 0 0 1 0 0h-16a0 0 0 0 1 0 0v-16a8 8 0 0 1 8-8z" transform="matrix(-1 0 0 -1 880 248)"></path> <path d="m412 92h16a0 0 0 0 1 0 0v16a8 8 0 0 1 -8 8 8 8 0 0 1 -8-8v-16a0 0 0 0 1 0 0z" transform="matrix(0 1 -1 0 524 -316)"></path> <path d="m104 233.333a8 8 0 0 1 8 8v16a0 0 0 0 1 0 0h-16a0 0 0 0 1 0 0v-16a8 8 0 0 1 8-8z"></path> <path d="m116 253.333h16a0 0 0 0 1 0 0v16a8 8 0 0 1 -8 8 8 8 0 0 1 -8-8v-16a0 0 0 0 1 0 0z" transform="matrix(0 -1 1 0 -141.333 389.333)"></path> <path d="m104 273.333a8 8 0 0 1 8 8v16a0 0 0 0 1 0 0h-16a0 0 0 0 1 0 0v-16a8 8 0 0 1 8-8z" transform="matrix(-1 0 0 -1 208 570.667)"></path> <path d="m76 253.333h16a0 0 0 0 1 0 0v16a8 8 0 0 1 -8 8 8 8 0 0 1 -8-8v-16a0 0 0 0 1 0 0z" transform="matrix(0 1 -1 0 349.333 181.333)"></path> <path d="m72 72a8 8 0 0 1 8 8v16a0 0 0 0 1 0 0h-16a0 0 0 0 1 0 0v-16a8 8 0 0 1 8-8z"></path> <path d="m84 92h16a0 0 0 0 1 0 0v16a8 8 0 0 1 -8 8 8 8 0 0 1 -8-8v-16a0 0 0 0 1 0 0z" transform="matrix(0 -1 1 0 -12 196)"></path> <path d="m72 112a8 8 0 0 1 8 8v16a0 0 0 0 1 0 0h-16a0 0 0 0 1 0 0v-16a8 8 0 0 1 8-8z" transform="matrix(-1 0 0 -1 144 248)"></path> <path d="m44 92h16a0 0 0 0 1 0 0v16a8 8 0 0 1 -8 8 8 8 0 0 1 -8-8v-16a0 0 0 0 1 0 0z" transform="matrix(0 1 -1 0 156 52)"></path> </g> <path d="m296 360h-40v24h-88v-128h160v72a32 32 0 0 1 -32 32z" fill="#fab991"></path> <path d="m192 360h64a0 0 0 0 1 0 0v24a0 0 0 0 1 0 0h-88a0 0 0 0 1 0 0 24 24 0 0 1 24-24z" fill="#f0915a"></path> <circle cx="280" cy="272" fill="#353744" r="8"></circle> <circle cx="312" cy="272" fill="#353744" r="8"></circle> <path d="m296 282.667a16 16 0 0 1 16 16v5.333a8 8 0 0 1 -8 8 8 8 0 0 1 -8-8v-21.333a0 0 0 0 1 0 0z" fill="#f0915a"></path> <path d="m288 328h24a0 0 0 0 1 0 0 8 8 0 0 1 -8 8h-8a8 8 0 0 1 -8-8 0 0 0 0 1 0 0z" fill="#353744"></path> <rect fill="#353744" height="32" rx="16" width="288" x="96" y="168"></rect> <rect fill="#55525b" height="32" rx="16" width="144" x="96" y="168"></rect> <path d="m152 200h176v56h-176z" fill="#353744"></path> <path d="m152 216h85.333v40h-85.333z" fill="#55525b"></path> <path d="m152 256v72a16 16 0 0 0 16 16h40a16 16 0 0 0 16-16v-32a16 16 0 0 0 16-16v-8a16 16 0 0 1 16-16z" fill="#353744"></path> <path d="m224 272a24 24 0 0 0 0 48z" fill="#f0915a"></path> <path d="m160 384h136a32 32 0 0 1 32 32v80a0 0 0 0 1 0 0h-200a0 0 0 0 1 0 0v-80a32 32 0 0 1 32-32z" fill="#353744"></path> <path d="m256 384h-48a32 32 0 0 1 32 32v40a24 24 0 0 0 24 24 24 24 0 0 0 24-24v-40a32 32 0 0 0 -32-32z" fill="#d7e6f0"></path> <path d="m272 416a32 32 0 0 0 -32-32h-16a32 32 0 0 1 32 32v62.629a24.026 24.026 0 0 0 16 0z" fill="#4b55a5"></path> <path d="m160 384a32 32 0 0 1 32 32v80a0 0 0 0 1 0 0h-64a0 0 0 0 1 0 0v-80a32 32 0 0 1 32-32z" fill="#55525b"></path> <path d="m229.333 152h138.667a0 0 0 0 1 0 0 16 16 0 0 1 -16 16h-106.667a16 16 0 0 1 -16-16 0 0 0 0 1 0 0z" fill="#fabe19" transform="matrix(-1 0 0 -1 597.333 320)"></path> <path d="m352 200h16v8h-16z" fill="#d7e6f0" transform="matrix(-1 0 0 -1 720 408)"></path> <path d="m348 208h24a4 4 0 0 1 4 4v36a8 8 0 0 1 -8 8h-16a8 8 0 0 1 -8-8v-36a4 4 0 0 1 4-4z" fill="#fabe19" transform="matrix(-1 0 0 -1 720 464)"></path> <path d="m344 216h12a4 4 0 0 1 4 4v36a0 0 0 0 1 0 0h-12a4 4 0 0 1 -4-4v-36a0 0 0 0 1 0 0z" fill="#f5871e" transform="matrix(-1 0 0 -1 704 472)"></path> <path d="m352 168h16v32h-16z" fill="#f5871e" transform="matrix(-1 0 0 -1 720 368)"></path> <rect fill="#353744" height="32" rx="16" width="288" x="96" y="32"></rect> <rect fill="#55525b" height="32" rx="16" width="144" x="96" y="32"></rect> <path d="m152 64h176v56h-176z" fill="#353744"></path> <path d="m152 80h85.333v40h-85.333z" fill="#55525b"></path> <path d="m229.333 16h138.667a0 0 0 0 1 0 0 16 16 0 0 1 -16 16h-106.667a16 16 0 0 1 -16-16 0 0 0 0 1 0 0z" fill="#fabe19" transform="matrix(-1 0 0 -1 597.333 48)"></path> <path d="m352 64h16v8h-16z" fill="#d7e6f0" transform="matrix(-1 0 0 -1 720 136)"></path> <path d="m348 72h24a4 4 0 0 1 4 4v36a8 8 0 0 1 -8 8h-16a8 8 0 0 1 -8-8v-36a4 4 0 0 1 4-4z" fill="#fabe19" transform="matrix(-1 0 0 -1 720 192)"></path> <path d="m344 80h12a4 4 0 0 1 4 4v36a0 0 0 0 1 0 0h-12a4 4 0 0 1 -4-4v-36a0 0 0 0 1 0 0z" fill="#f5871e" transform="matrix(-1 0 0 -1 704 200)"></path> <path d="m352 32h16v32h-16z" fill="#f5871e" transform="matrix(-1 0 0 -1 720 96)"></path> </svg> 