<?xml version="1.0" encoding="UTF-8"?> <svg xmlns="http://www.w3.org/2000/svg" height="512" viewBox="0 0 512 512" width="512"> <path d="m320 16a112 112 0 0 0 -112 112v192h112v-32h64a48 48 0 0 0 48-48v-112a112 112 0 0 0 -112-112z" fill="#fab991"></path> <path d="m208 320h176a48 48 0 0 1 48 48v128a0 0 0 0 1 0 0h-272a0 0 0 0 1 0 0v-128a48 48 0 0 1 48-48z" fill="#4b55a5"></path> <path d="m240 320h-32a48 48 0 0 1 48 48v128h32v-128a48 48 0 0 0 -48-48z" fill="#353744"></path> <path d="m240 288h80a0 0 0 0 1 0 0v32a0 0 0 0 1 0 0h-112a0 0 0 0 1 0 0 32 32 0 0 1 32-32z" fill="#f0915a"></path> <path d="m352 16h-48a112 112 0 0 0 -112 112v16a40 40 0 1 0 0 64v32a32 32 0 0 0 32 32h32a32 32 0 0 0 32-32v-80a32 32 0 0 0 32-32h112a16 16 0 0 0 16-16 96 96 0 0 0 -96-96z" fill="#f04b37"></path> <path d="m288 160v80a40 40 0 0 1 0-80z" fill="#f0915a"></path> <circle cx="358.667" cy="160" fill="#353744" r="12"></circle> <circle cx="398.667" cy="160" fill="#353744" r="12"></circle> <path d="m378.667 173.333a32 32 0 0 1 32 32v2.667a16 16 0 0 1 -16 16 16 16 0 0 1 -16-16v-34.667a0 0 0 0 1 0 0z" fill="#f0915a"></path> <path d="m272 320a48 48 0 0 1 48 48v8a24 24 0 0 0 24 24 24 24 0 0 0 24-24v-8a48 48 0 0 0 -48-48z" fill="#f0915a"></path> <path d="m256 464v-96a48 48 0 0 0 -48-48 48 48 0 0 0 -48 48v128h272v-32z" fill="#6478b9"></path> <path d="m368 240h32a0 0 0 0 1 0 0 16 16 0 0 1 -16 16 16 16 0 0 1 -16-16 0 0 0 0 1 0 0z" fill="#353744"></path> <path d="m432 464h48a16 16 0 0 1 16 16v16a0 0 0 0 1 0 0h-64a0 0 0 0 1 0 0v-32a0 0 0 0 1 0 0z" fill="#f0915a"></path> <path d="m328 352h144a8 8 0 0 1 8 8v104a0 0 0 0 1 0 0h-160a0 0 0 0 1 0 0v-104a8 8 0 0 1 8-8z" fill="#d7e6f0"></path> <path d="m360 352h112a8 8 0 0 1 8 8v104a0 0 0 0 1 0 0h-128a0 0 0 0 1 0 0v-104a8 8 0 0 1 8-8z" fill="#353744"></path> <rect fill="#f5871e" height="240" rx="120" width="272" x="16" y="256"></rect> <circle cx="136" cy="376" fill="#fabe19" r="120"></circle> <path d="m32 380a4 4 0 0 1 -4-4 108.122 108.122 0 0 1 108-108 4 4 0 0 1 0 8 100.113 100.113 0 0 0 -100 100 4 4 0 0 1 -4 4z" fill="#ffdc37"></path> <circle cx="136" cy="376" fill="#d7e6f0" r="88"></circle> <path d="m136 312v128a64 64 0 0 0 0-128z" fill="#6478b9"></path> <g fill="#353744"> <path d="m144 353.371v-41.371a8 8 0 0 0 -16 0v41.371a24.058 24.058 0 0 0 -14.629 14.629h-41.371a8 8 0 0 0 0 16h41.371a24 24 0 1 0 30.629-30.629z"></path> <path d="m136 424a8 8 0 0 0 -8 8v8a8 8 0 0 0 16 0v-8a8 8 0 0 0 -8-8z"></path> <path d="m200 368h-8a8 8 0 0 0 0 16h8a8 8 0 0 0 0-16z"></path> </g> <circle cx="136" cy="376" fill="#faa51e" r="8"></circle> </svg> 